# xmcd
#
# Track frame offsets:
#	150
#	4715
#	22944
#	67167
#	88028
#	116863
#	146380
#	201583
#	240450
#	270440
#	298326
#
# Disc length: 4788 seconds
#
# Revision: 1
# Processed by: cddbd v1.5.2PL0 Copyright (c) Steve Scherf et al.
# Submitted via: audiograbber 1.83.01
#
DISCID=a112b20b
DTITLE=Grateful Dead - 73-09-07A Nassau Veterans Memorial Coliseum, Uniondale N
DTITLE=Y
DYEAR=1900
DGENRE=
TTITLE0=Crowd and Tuning
TTITLE1=Promised Land
TTITLE2=Sugaree
TTITLE3=Mexicali Blues
TTITLE4=They Love Each Other
TTITLE5=Jack Straw
TTITLE6=Row Jimmy
TTITLE7=Looks Like Rain
TTITLE8=Deal
TTITLE9=El Paso
TTITLE10=Bird Song
EXTD=
EXTT0=
EXTT1=
EXTT2=
EXTT3=
EXTT4=
EXTT5=
EXTT6=
EXTT7=
EXTT8=
EXTT9=
EXTT10=
PLAYORDER=
